# xmcd
#
# Track frame offsets: 
#        150
#        18099
#        36555
#        69366
#        84909
#        115404
#        135774
#        157977
#        180597
#        196068
#        214518
#
# Disc length: 3149 seconds
#
# Revision: 0
# Processed by: cddbd v1.5.1PL0 Copyright (c) Steve Scherf et al.
# Submitted via: ExactAudioCopy v0.95a5
#
DISCID=800c4b0b
DTITLE=Magic Slim and The Teardrops - Anything Can Happen 
DYEAR=2005
DGENRE=Blues
TTITLE0=I'm A Bluesman
TTITLE1=The Man You Need
TTITLE2=Goin' To Mississippi
TTITLE3=Black Tornado
TTITLE4=Please Don't Dog Me
TTITLE5=I Need Lovin'
TTITLE6=Mind Your Own Business
TTITLE7=Still A Fool
TTITLE8=Shake It 
TTITLE9=I Don't Believe You Baby
TTITLE10=Get Your Business Straight
EXTD=
EXTT0=
EXTT1=
EXTT2=
EXTT3=
EXTT4=
EXTT5=
EXTT6=
EXTT7=
EXTT8=
EXTT9=
EXTT10=
PLAYORDER=
